<?xml version="1.0" encoding="UTF-8" standalone="no"?>
<svg
   xmlns:dc="http://purl.org/dc/elements/1.1/"
   xmlns:cc="http://creativecommons.org/ns#"
   xmlns:rdf="http://www.w3.org/1999/02/22-rdf-syntax-ns#"
   xmlns:svg="http://www.w3.org/2000/svg"
   xmlns="http://www.w3.org/2000/svg"
   xmlns:sodipodi="http://sodipodi.sourceforge.net/DTD/sodipodi-0.dtd"
   xmlns:inkscape="http://www.inkscape.org/namespaces/inkscape"
   width="167.0869141pt"
   height="242.6669922pt"
   viewBox="0 0 167.0869141 242.6669922"
   xml:space="preserve"
   id="svg2"
   version="1.1"
   inkscape:version="1.0.1 (c497b03c, 2020-09-10)"
   sodipodi:docname="back_of_red_bolts.svg"
   inkscape:export-filename="/home/byron/art/cards/final/PNGs/A_of_clubs.png"
   inkscape:export-xdpi="215.44792"
   inkscape:export-ydpi="215.44792"><metadata
   id="metadata43"><rdf:RDF><cc:Work
       rdf:about=""><dc:format>image/svg+xml</dc:format><dc:type
         rdf:resource="http://purl.org/dc/dcmitype/StillImage" /><dc:title></dc:title></cc:Work></rdf:RDF></metadata><defs
   id="defs41"><linearGradient
     id="linearGradient2984"><stop
       style="stop-color:#000000;stop-opacity:1;"
       offset="0"
       id="stop2986" /><stop
       style="stop-color:#000000;stop-opacity:0.65648854;"
       offset="1"
       id="stop2988" /></linearGradient><linearGradient
     id="linearGradient3784"><stop
       style="stop-color:#ffffff;stop-opacity:0.53435117;"
       offset="0"
       id="stop3786" /><stop
       style="stop-color:#000000;stop-opacity:0;"
       offset="1"
       id="stop3788" /></linearGradient><linearGradient
     id="linearGradient3784-4"><stop
       style="stop-color:#ffffff;stop-opacity:0.51908398;"
       offset="0"
       id="stop3786-8" /><stop
       style="stop-color:#000000;stop-opacity:0;"
       offset="1"
       id="stop3788-6" /></linearGradient><linearGradient
     id="linearGradient3784-3"><stop
       style="stop-color:#ffffff;stop-opacity:0.70229006;"
       offset="0"
       id="stop3786-86" /><stop
       style="stop-color:#000000;stop-opacity:0;"
       offset="1"
       id="stop3788-2" /></linearGradient></defs><sodipodi:namedview
   pagecolor="#ffffff"
   bordercolor="#666666"
   borderopacity="1"
   objecttolerance="10"
   gridtolerance="10"
   guidetolerance="10"
   inkscape:pageopacity="0"
   inkscape:pageshadow="2"
   inkscape:window-width="1251"
   inkscape:window-height="847"
   id="namedview39"
   showgrid="false"
   inkscape:zoom="1.3707458"
   inkscape:cx="-7.9263789"
   inkscape:cy="166.94254"
   inkscape:window-x="0"
   inkscape:window-y="25"
   inkscape:window-maximized="0"
   inkscape:current-layer="g887"
   inkscape:document-rotation="0" />
	




<g
   id="g887"><g
     id="Layer_x0020_1"
     style="fill-rule:nonzero;clip-rule:nonzero;stroke:#000000;stroke-miterlimit:4;fill:#ff0000">
		<path
   style="fill:#ff0000;stroke-width:0.5"
   d="M166.8369141,235.5478516c0,3.7773438-3.0869141,6.8691406-6.8710938,6.8691406H7.1108398c-3.7749023,0-6.8608398-3.0917969-6.8608398-6.8691406V7.1201172C0.25,3.3427734,3.3359375,0.25,7.1108398,0.25h152.8549805    c3.7841797,0,6.8710938,3.0927734,6.8710938,6.8701172v228.4277344z"
   id="path5" />
		<g
   style="stroke:none;fill:#ff0000"
   id="g7">
			<g
   id="g9"
   style="fill:#ff0000">
				
			</g>
			
		</g>
		<g
   id="g15"
   style="fill:#ff0000">
			
		</g>
		<g
   id="g19"
   style="fill:#ff0000">
			
		</g>
		<g
   style="stroke:none;fill:#ff0000"
   id="g23">
			<g
   id="g25"
   style="fill:#ff0000">
				
			</g>
			
		</g>
		<g
   style="stroke:none;fill:#ff0000"
   id="g31">
			<g
   id="g33"
   style="fill:#ff0000">
				
			</g>
			
		</g>
	</g><g
     id="g986"
     transform="matrix(0.80910427,0,0,0.78237592,6.4773052,7.6316514)"
     style="fill:#ffffff;stroke:#ffffff"><path
       style="fill:#ffffff;stroke:#ffffff;stroke-width:0.75px;stroke-linecap:butt;stroke-linejoin:miter;stroke-opacity:1"
       d="M 161.25501,101.11125 67.150005,240.93464 v 0"
       id="path138" /><path
       style="fill:#ffffff;stroke:#ffffff;stroke-width:0.75px;stroke-linecap:butt;stroke-linejoin:miter;stroke-opacity:1"
       d="m 87.256057,145.41924 -20.106052,95.5154 v 0"
       id="path144" /><path
       style="fill:#ffffff;stroke:#ffffff;stroke-width:0.75px;stroke-linecap:butt;stroke-linejoin:miter;stroke-opacity:1"
       d="m 161.25501,101.11125 c 0,0 -62.03337,3.20928 -63.135833,-0.23591"
       id="path146" /><g
       id="g977"
       style="fill:#ffffff;stroke:#ffffff"><path
         style="fill:#ffffff;stroke:#ffffff;stroke-width:0.632518px;stroke-linecap:butt;stroke-linejoin:miter;stroke-opacity:1"
         d="M 49.582871,49.83007 H 110.99967 L 87.256058,145.41924 H 29.321661 Z"
         id="path87-8-0" /><path
         style="fill:#ffffff;stroke:#ffffff;stroke-width:2.60842;stroke-linecap:round;stroke-linejoin:round;stroke-dashoffset:9.34;paint-order:fill markers stroke"
         d="m 91.624357,315.83363 c 0,-0.41298 5.748461,-28.09571 12.774353,-61.51718 9.85813,-46.89412 14.4128,-67.34786 19.95142,-89.59634 5.7257,-22.99995 7.3287,-28.77183 7.92691,-28.54228 0.41241,0.15826 4.63942,0.55398 9.39335,0.87939 8.15654,0.55831 38.20495,0.0905 64.14335,-0.99859 6.53655,-0.27446 7.44521,-0.21564 7.04275,0.45588 -0.48586,0.81068 -104.4763,155.31521 -115.080815,170.98213 -3.383225,4.99832 -6.151318,8.74996 -6.151318,8.33699 z"
         id="path148"
         transform="scale(0.75)" /></g><path
       style="fill:#ffffff;stroke:#ffffff;stroke-width:2.60842;stroke-linecap:round;stroke-linejoin:round;stroke-dashoffset:9.34;stroke-opacity:1;paint-order:fill markers stroke"
       d="m 90.879873,316.46848 c -0.468802,-0.75854 14.247567,-71.78846 23.683487,-114.31055 5.55115,-25.01569 14.38558,-60.79944 16.13166,-65.34103 0.64029,-1.66542 0.19526,-1.62868 11.01109,-0.90892 5.13451,0.34169 16.11102,0.29809 34.17036,-0.13573 36.43959,-0.87535 37.50258,-0.86836 37.719,0.24808 0.14226,0.73389 -58.70882,88.76933 -110.1249,164.73605 -10.915266,16.12719 -11.716331,17.12685 -12.590697,15.7121 z m 61.929297,-92.47614 c 32.07355,-47.6645 58.21697,-86.76129 58.09649,-86.88177 -0.12049,-0.12048 -6.99493,0.0347 -15.27654,0.34483 -19.22377,0.71991 -51.0578,0.9228 -57.8834,0.36892 l -5.2646,-0.42721 -2.4868,9.29585 c -7.304,27.30296 -15.53099,64.05623 -30.574115,136.58697 -2.856461,13.77248 -5.314035,25.56908 -5.461276,26.21467 -0.147241,0.64558 -0.08717,1.17079 0.133492,1.16712 0.220662,-0.004 26.643199,-39.00489 58.716749,-86.66938 z"
       id="path150"
       transform="scale(0.75)" /></g></g></svg>
