<?xml version="1.0" encoding="UTF-8" standalone="no"?>
<svg
   xmlns:dc="http://purl.org/dc/elements/1.1/"
   xmlns:cc="http://creativecommons.org/ns#"
   xmlns:rdf="http://www.w3.org/1999/02/22-rdf-syntax-ns#"
   xmlns:svg="http://www.w3.org/2000/svg"
   xmlns="http://www.w3.org/2000/svg"
   xmlns:xlink="http://www.w3.org/1999/xlink"
   xmlns:sodipodi="http://sodipodi.sourceforge.net/DTD/sodipodi-0.dtd"
   xmlns:inkscape="http://www.inkscape.org/namespaces/inkscape"
   width="167.0869141pt"
   height="242.6669922pt"
   viewBox="0 0 167.0869141 242.6669922"
   xml:space="preserve"
   id="svg2"
   version="1.1"
   sodipodi:docname="7_simplified.svg"
   inkscape:version="1.0.1 (c497b03c, 2020-09-10)"><sodipodi:namedview
   pagecolor="#ffffff"
   bordercolor="#666666"
   borderopacity="1"
   objecttolerance="10"
   gridtolerance="10"
   guidetolerance="10"
   inkscape:pageopacity="0"
   inkscape:pageshadow="2"
   inkscape:window-width="1440"
   inkscape:window-height="847"
   id="namedview67"
   showgrid="false"
   inkscape:zoom="1.9112963"
   inkscape:cx="102.05531"
   inkscape:cy="162.06792"
   inkscape:window-x="0"
   inkscape:window-y="25"
   inkscape:window-maximized="0"
   inkscape:current-layer="g116"
   inkscape:document-rotation="0" /><metadata
   id="metadata43"><rdf:RDF><cc:Work
       rdf:about=""><dc:format>image/svg+xml</dc:format><dc:type
         rdf:resource="http://purl.org/dc/dcmitype/StillImage" /><dc:title /></cc:Work></rdf:RDF></metadata><defs
   id="defs41"><marker
   style="overflow:visible"
   id="Arrow1Lstart"
   refX="0.0"
   refY="0.0"
   orient="auto"
   inkscape:stockid="Arrow1Lstart"
   inkscape:isstock="true"><path
     transform="scale(0.8) translate(12.5,0)"
     style="fill-rule:evenodd;stroke:#000000;stroke-width:1.0pt"
     d="M 0.0,0.0 L 5.0,-5.0 L -12.5,0.0 L 5.0,5.0 L 0.0,0.0 z "
     id="path959" /></marker><rect
   x="40.417594"
   y="92.2149"
   width="112.6199"
   height="172.65768"
   id="rect132" /><rect
   x="33.852065"
   y="59.966516"
   width="161.52271"
   height="200.69439"
   id="rect892" /><radialGradient
   xlink:href="#linearGradient2984"
   id="radialGradient3760"
   cx="48.231091"
   cy="18.137882"
   fx="48.231091"
   fy="18.137882"
   r="9.5"
   gradientUnits="userSpaceOnUse"
   gradientTransform="matrix(-1.5605256,0.01828294,-0.02684055,-2.2909528,123.98377,58.809108)" /><linearGradient
   id="linearGradient2984"><stop
     style="stop-color:#000000;stop-opacity:1;"
     offset="0"
     id="stop2986" /><stop
     style="stop-color:#000000;stop-opacity:0.65648854;"
     offset="1"
     id="stop2988" /></linearGradient><radialGradient
   xlink:href="#linearGradient3784"
   id="radialGradient3792"
   cx="171.48665"
   cy="511.22299"
   fx="171.48665"
   fy="511.22299"
   r="81.902771"
   gradientTransform="matrix(1.1529891,-0.67391547,0.39482025,0.67549043,-233.63262,270.40076)"
   gradientUnits="userSpaceOnUse" /><linearGradient
   id="linearGradient3784"><stop
     style="stop-color:#ffffff;stop-opacity:0.53435117;"
     offset="0"
     id="stop3786" /><stop
     style="stop-color:#000000;stop-opacity:0;"
     offset="1"
     id="stop3788" /></linearGradient><filter
   color-interpolation-filters="sRGB"
   id="filter3834"
   x="-0.13934441"
   width="1.2786888"
   y="-0.16242018"
   height="1.3248404"><feGaussianBlur
     stdDeviation="9.5105772"
     id="feGaussianBlur3836" /></filter><radialGradient
   r="81.902771"
   fy="511.22299"
   fx="171.48665"
   cy="511.22299"
   cx="171.48665"
   gradientTransform="matrix(1.1529891,-0.67391547,0.39482025,0.67549043,-233.63262,270.40076)"
   gradientUnits="userSpaceOnUse"
   id="radialGradient3855"
   xlink:href="#linearGradient3784-4" /><linearGradient
   id="linearGradient3784-4"><stop
     style="stop-color:#ffffff;stop-opacity:0.51908398;"
     offset="0"
     id="stop3786-8" /><stop
     style="stop-color:#000000;stop-opacity:0;"
     offset="1"
     id="stop3788-6" /></linearGradient><filter
   color-interpolation-filters="sRGB"
   id="filter3834-6"
   x="-0.13934441"
   width="1.2786888"
   y="-0.16242018"
   height="1.3248404"><feGaussianBlur
     stdDeviation="9.5105772"
     id="feGaussianBlur3836-6" /></filter><radialGradient
   r="81.902771"
   fy="461.84113"
   fx="181.69392"
   cy="461.84113"
   cx="181.69392"
   gradientTransform="matrix(1.1529891,-0.67391547,0.39482025,0.67549043,-233.63262,270.40076)"
   gradientUnits="userSpaceOnUse"
   id="radialGradient3916"
   xlink:href="#linearGradient3784-3" /><linearGradient
   id="linearGradient3784-3"><stop
     style="stop-color:#ffffff;stop-opacity:0.70229006;"
     offset="0"
     id="stop3786-86" /><stop
     style="stop-color:#000000;stop-opacity:0;"
     offset="1"
     id="stop3788-2" /></linearGradient><filter
   color-interpolation-filters="sRGB"
   id="filter3834-7"
   x="-0.13934441"
   width="1.2786888"
   y="-0.16242018"
   height="1.3248404"><feGaussianBlur
     stdDeviation="9.5105772"
     id="feGaussianBlur3836-0" /></filter>
		
		
		
		
		
		
	</defs>
	




<g
   id="g116"><path
     style="clip-rule:nonzero;fill:#ffffff;fill-rule:nonzero;stroke:#000000;stroke-width:0.5;stroke-miterlimit:4"
     d="m 166.83691,235.54785 c 0,3.77735 -3.08691,6.86914 -6.87109,6.86914 H 7.1108398 C 3.3359375,242.41699 0.25,239.3252 0.25,235.54785 V 7.1201172 C 0.25,3.3427734 3.3359375,0.25 7.1108398,0.25 H 159.96582 c 3.78418,0 6.87109,3.0927734 6.87109,6.8701172 z"
     id="path5" /><g
     style="clip-rule:nonzero;fill-rule:nonzero;stroke:none;stroke-miterlimit:4"
     id="g7">
			<g
   id="g9">
				
			</g>
			
		</g><g
     id="g15"
     style="clip-rule:nonzero;fill-rule:nonzero;stroke:#000000;stroke-miterlimit:4">
			
		</g><g
     id="g19"
     style="clip-rule:nonzero;fill-rule:nonzero;stroke:#000000;stroke-miterlimit:4">
			
		</g><g
     style="clip-rule:nonzero;fill-rule:nonzero;stroke:none;stroke-miterlimit:4"
     id="g23">
			<g
   id="g25">
				
			</g>
			
		</g><g
     style="clip-rule:nonzero;fill-rule:nonzero;stroke:none;stroke-miterlimit:4"
     id="g31">
			<g
   id="g33">
				
			</g>
			
		</g><text
     xml:space="preserve"
     style="font-style:normal;font-weight:normal;line-height:0%;font-family:'Bitstream Vera Sans';letter-spacing:0px;word-spacing:0px;fill:#000000;fill-opacity:1;stroke:none"
     x="6.7105455"
     y="27.548409"
     id="text3788"><tspan
       id="tspan3790"
       x="6.7105455"
       y="27.548409"
       style="font-style:normal;font-variant:normal;font-weight:normal;font-stretch:normal;font-size:32px;line-height:1.25;font-family:Arial;-inkscape-font-specification:Arial">A</tspan></text><g
     id="layer1-1"
     transform="matrix(5.9720339,0,0,5.9720339,-203.77663,-22.114186)"><path
       style="fill:url(#radialGradient3760);fill-opacity:1"
       d="m 50.291466,22.698228 c 0,0 2.375,-1.9 2.375,-4.534 0,-1.542 -1.369,-4.102 -4.534,-4.102 -3.165,0 -4.534,2.561 -4.534,4.102 0,2.634 2.375,4.534 2.375,4.534 -2.638,-2.055 -7.341,-0.652 -7.341,3.455 0,2.056 1.68,4.318 4.318,4.318 3.165,0 4.534,-3.455 4.534,-3.455 0,0 0.402,3.938 -1.943,6.046 h 5.182 c -2.345,-2.107 -1.943,-6.046 -1.943,-6.046 0,0 1.369,3.455 4.534,3.455 2.639,0 4.318,-2.263 4.318,-4.318 0,-4.107 -4.703,-5.51 -7.341,-3.455 z"
       id="cl" /></g><path
     transform="matrix(0.2286419,0,0,0.24885299,1.171169,-6.4400035)"
     id="path3762"
     d="m 117.3013,604.26609 c 0,0 -8.06755,-94.94997 22.85715,-122.85714 34.76052,-31.36871 140,-11.42857 140,-11.42857 0,0 -71.5404,24.83762 -100,48.57143 -27.21033,22.69199 -62.85715,85.71428 -62.85715,85.71428 z"
     style="fill:url(#radialGradient3792);fill-opacity:1;stroke:none;filter:url(#filter3834)" /><path
     transform="matrix(0.2286419,0,0,0.24885299,33.041638,-51.982431)"
     id="path3762-6"
     d="m 117.3013,604.26609 c 0,0 -8.06755,-94.94997 22.85715,-122.85714 34.76052,-31.36871 140,-11.42857 140,-11.42857 0,0 -71.5404,24.83762 -100,48.57143 -27.21033,22.69199 -62.85715,85.71428 -62.85715,85.71428 z"
     style="fill:url(#radialGradient3855);fill-opacity:1;stroke:none;filter:url(#filter3834-6)" /><path
     transform="matrix(0.23542664,0.14490175,-0.17355118,0.28197432,159.22763,-46.377159)"
     id="path3762-7"
     d="m 117.3013,604.26609 c 0,0 -8.06755,-94.94997 22.85715,-122.85714 34.76052,-31.36871 140,-11.42857 140,-11.42857 0,0 -71.5404,24.83762 -100,48.57143 -27.21033,22.69199 -62.85715,85.71428 -62.85715,85.71428 z"
     style="fill:url(#radialGradient3916);fill-opacity:1;stroke:none;filter:url(#filter3834-7)" /><path
     id="rect3015"
     d="M 14.715926,41.667769 V 193.0369 H 152.24751 V 41.667769 Z m 68.91074,20.125002 c 18.901484,0 27.082424,15.290287 27.082424,24.499163 0,15.730336 -14.185417,27.075986 -14.185417,27.075986 15.754227,-12.27253 43.838237,-3.89322 43.838237,20.63393 0,12.27253 -10.02738,25.78757 -25.78758,25.78757 -18.901488,0 -27.075984,-20.63392 -27.075984,-20.63392 0,0 -2.402265,23.52468 11.602152,36.10775 H 68.152833 c 14.004419,-12.58904 11.608596,-36.10775 11.608596,-36.10775 0,0 -8.174501,20.63392 -27.075987,20.63392 -15.754225,0 -25.787577,-13.50907 -25.787577,-25.78757 0,-24.52715 28.08401,-32.90646 43.838235,-20.63393 0,0 -14.185421,-11.34565 -14.185421,-27.075986 0,-9.202904 8.174501,-24.499163 27.075987,-24.499163 z"
     style="fill:#fffeff;fill-opacity:1;fill-rule:nonzero;stroke:none;stroke-width:0.206146" /><path
     id="cl-9"
     d="m 20.690886,43.739708 c 0,0 3.52842,-2.822736 3.52842,-6.73594 0,-2.290873 -2.033856,-6.094139 -6.73594,-6.094139 -4.702084,0 -6.73594,3.804752 -6.73594,6.094139 0,3.913204 3.52842,6.73594 3.52842,6.73594 C 10.3567,40.686696 3.3696853,42.771064 3.3696853,48.872631 c 0,3.054498 2.495893,6.415039 6.4150393,6.415039 4.7020844,0 6.7359394,-5.132923 6.7359394,-5.132923 0,0 0.597232,5.850492 -2.886619,8.982244 h 7.698642 c -3.483851,-3.130266 -2.886619,-8.982244 -2.886619,-8.982244 0,0 2.033855,5.132923 6.735939,5.132923 3.920632,0 6.41504,-3.362027 6.41504,-6.415039 0,-6.101567 -6.987015,-8.185935 -10.906161,-5.132923 z"
     style="fill:#000000;stroke-width:1.48565" /><text
     xml:space="preserve"
     style="font-style:normal;font-weight:normal;line-height:0%;font-family:'Bitstream Vera Sans';letter-spacing:0px;word-spacing:0px;fill:#000000;fill-opacity:1;stroke:none"
     x="-160.46396"
     y="-214.4666"
     id="text3788-8"
     transform="scale(-1)"><tspan
       id="tspan3790-7"
       x="-160.46396"
       y="-214.4666"
       style="font-style:normal;font-variant:normal;font-weight:normal;font-stretch:normal;font-size:32px;line-height:1.25;font-family:Arial;-inkscape-font-specification:Arial">A</tspan></text><path
     id="cl-9-7"
     d="m 146.48361,198.74018 c 0,0 -3.52842,2.82274 -3.52842,6.73594 0,2.29088 2.03386,6.09414 6.73594,6.09414 4.70209,0 6.73594,-3.80475 6.73594,-6.09414 0,-3.9132 -3.52842,-6.73594 -3.52842,-6.73594 3.91915,3.05302 10.90616,0.96865 10.90616,-5.13292 0,-3.0545 -2.49589,-6.41504 -6.41504,-6.41504 -4.70208,0 -6.73594,5.13292 -6.73594,5.13292 0,0 -0.59723,-5.85049 2.88662,-8.98224 h -7.69864 c 3.48385,3.13027 2.88662,8.98224 2.88662,8.98224 0,0 -2.03385,-5.13292 -6.73594,-5.13292 -3.92063,0 -6.41504,3.36203 -6.41504,6.41504 0,6.10157 6.98702,8.18594 10.90616,5.13292 z"
     style="fill:#000000;stroke-width:1.48565" /><rect
     style="fill:#ffffff;stroke:#000200;stroke-width:0.75;stroke-dasharray:0,8.24999997;stroke-miterlimit:4;stroke-dashoffset:0"
     id="rect65"
     width="61.417316"
     height="31.91766"
     x="1.4508028"
     y="34.335667" /><rect
     style="fill:#f2f2f2;stroke:#f2f2f2;stroke-width:19.0011;stroke-linecap:round;stroke-linejoin:round;stroke-miterlimit:4;stroke-dasharray:none;stroke-dashoffset:7.005;stroke-opacity:1"
     id="rect128"
     width="147.9081"
     height="224.11302"
     x="9.5728054"
     y="8.7580032" /><text
     xml:space="preserve"
     id="text130"
     style="font-size:24px;line-height:1.25;font-family:sans-serif;white-space:pre;shape-inside:url(#rect132);fill:#000000;"
     transform="translate(-4.7573246,-49.733476)"><tspan
       x="40.417969"
       y="223.59041"><tspan
         style="font-size:144px">7</tspan></tspan></text></g></svg>
