<svg width="820" height="1274" xmlns="http://www.w3.org/2000/svg" xmlns:xlink="http://www.w3.org/1999/xlink" xml:space="preserve" overflow="hidden"><defs><clipPath id="clip0"><rect x="495" y="559" width="820" height="1274"/></clipPath><clipPath id="clip1"><rect x="499" y="726" width="814" height="852"/></clipPath><clipPath id="clip2"><rect x="499" y="726" width="814" height="852"/></clipPath><clipPath id="clip3"><rect x="499" y="726" width="814" height="852"/></clipPath><clipPath id="clip4"><rect x="499" y="768" width="814" height="853"/></clipPath><clipPath id="clip5"><rect x="499" y="768" width="814" height="853"/></clipPath><clipPath id="clip6"><rect x="499" y="768" width="814" height="853"/></clipPath><clipPath id="clip7"><rect x="499" y="811" width="814" height="853"/></clipPath><clipPath id="clip8"><rect x="499" y="811" width="814" height="853"/></clipPath><clipPath id="clip9"><rect x="499" y="811" width="814" height="853"/></clipPath></defs><g clip-path="url(#clip0)" transform="translate(-495 -559)"><path d="M527.5 688.502C527.5 618.913 583.913 562.5 653.503 562.5L1157.5 562.5C1227.09 562.5 1283.5 618.913 1283.5 688.502L1283.5 1616.5C1283.5 1686.09 1227.09 1742.5 1157.5 1742.5L653.503 1742.5C583.913 1742.5 527.5 1686.09 527.5 1616.5Z" stroke="#000000" stroke-width="4.58333" stroke-linecap="butt" stroke-linejoin="miter" stroke-miterlimit="8" stroke-opacity="1" fill="#2F5597" fill-rule="evenodd" fill-opacity="1"/><g clip-path="url(#clip1)"><g clip-path="url(#clip2)"><g clip-path="url(#clip3)"><path d="M441.086 535.31C535.157 643.718 660.562 545.388 660.562 452.773 660.562 295.881 406.5 101.625 406.5 101.625 406.5 101.625 152.488 295.881 152.488 452.773 152.488 545.328 277.656 643.566 371.71 535.572L371.71 537.689C366.959 615.195 352.774 686.07 319.035 711.375L494.058 711.375C460.31 686.07 446.134 615.195 441.383 537.689Z" fill="#000000" fill-rule="nonzero" fill-opacity="1" transform="matrix(1 0 0 1.04674 499 726)"/></g></g></g><path d="M527.5 731.502C527.5 661.913 583.913 605.5 653.503 605.5L1157.5 605.5C1227.09 605.5 1283.5 661.913 1283.5 731.502L1283.5 1659.5C1283.5 1729.09 1227.09 1785.5 1157.5 1785.5L653.503 1785.5C583.913 1785.5 527.5 1729.09 527.5 1659.5Z" stroke="#000000" stroke-width="4.58333" stroke-linecap="butt" stroke-linejoin="miter" stroke-miterlimit="8" stroke-opacity="1" fill="#2F5597" fill-rule="evenodd" fill-opacity="1"/><g clip-path="url(#clip4)"><g clip-path="url(#clip5)"><g clip-path="url(#clip6)"><path d="M441.086 535.31C535.157 643.718 660.562 545.388 660.562 452.773 660.562 295.881 406.5 101.625 406.5 101.625 406.5 101.625 152.488 295.881 152.488 452.773 152.488 545.328 277.656 643.566 371.71 535.572L371.71 537.689C366.959 615.195 352.774 686.07 319.035 711.375L494.058 711.375C460.31 686.07 446.134 615.195 441.383 537.689Z" fill="#000000" fill-rule="nonzero" fill-opacity="1" transform="matrix(1 0 0 1.04674 499 769)"/></g></g></g><path d="M527.5 774.503C527.5 704.913 583.913 648.5 653.503 648.5L1157.5 648.5C1227.09 648.5 1283.5 704.913 1283.5 774.503L1283.5 1701.5C1283.5 1771.09 1227.09 1827.5 1157.5 1827.5L653.503 1827.5C583.913 1827.5 527.5 1771.09 527.5 1701.5Z" stroke="#000000" stroke-width="4.58333" stroke-linecap="butt" stroke-linejoin="miter" stroke-miterlimit="8" stroke-opacity="1" fill="#2F5597" fill-rule="evenodd" fill-opacity="1"/><g clip-path="url(#clip7)"><g clip-path="url(#clip8)"><g clip-path="url(#clip9)"><path d="M441.086 535.31C535.157 643.718 660.562 545.388 660.562 452.773 660.562 295.881 406.5 101.625 406.5 101.625 406.5 101.625 152.488 295.881 152.488 452.773 152.488 545.328 277.656 643.566 371.71 535.572L371.71 537.689C366.959 615.195 352.774 686.07 319.035 711.375L494.058 711.375C460.31 686.07 446.134 615.195 441.383 537.689Z" fill="#000000" fill-rule="nonzero" fill-opacity="1" transform="matrix(1 0 0 1.04674 499 812)"/></g></g></g></g></svg>