<svg width="816" height="1187" xmlns="http://www.w3.org/2000/svg" xmlns:xlink="http://www.w3.org/1999/xlink" xml:space="preserve" overflow="hidden"><defs><clipPath id="clip0"><rect x="2603" y="655" width="816" height="1187"/></clipPath><clipPath id="clip1"><rect x="2605" y="823" width="814" height="853"/></clipPath><clipPath id="clip2"><rect x="2605" y="823" width="814" height="853"/></clipPath><clipPath id="clip3"><rect x="2605" y="823" width="814" height="853"/></clipPath></defs><g clip-path="url(#clip0)" transform="translate(-2603 -655)"><path d="M2635.5 785.336C2635.5 715.839 2691.84 659.5 2761.34 659.5L3264.66 659.5C3334.16 659.5 3390.5 715.839 3390.5 785.336L3390.5 1713.66C3390.5 1783.16 3334.16 1839.5 3264.66 1839.5L2761.34 1839.5C2691.84 1839.5 2635.5 1783.16 2635.5 1713.66Z" stroke="#000000" stroke-width="4.58333" stroke-linecap="butt" stroke-linejoin="miter" stroke-miterlimit="8" stroke-opacity="1" fill="#C00000" fill-rule="evenodd" fill-opacity="1"/><g clip-path="url(#clip1)"><g clip-path="url(#clip2)"><g clip-path="url(#clip3)"><path d="M441.086 535.31C535.157 643.718 660.562 545.388 660.562 452.773 660.562 295.881 406.5 101.625 406.5 101.625 406.5 101.625 152.488 295.881 152.488 452.773 152.488 545.328 277.656 643.566 371.71 535.572L371.71 537.689C366.959 615.195 352.774 686.07 319.035 711.375L494.058 711.375C460.31 686.07 446.134 615.195 441.383 537.689Z" fill="#000000" fill-rule="nonzero" fill-opacity="1" transform="matrix(1 0 0 1.04674 2606 824)"/></g></g></g></g></svg>