<svg width="820" height="1192" xmlns="http://www.w3.org/2000/svg" xmlns:xlink="http://www.w3.org/1999/xlink" xml:space="preserve" overflow="hidden"><defs><clipPath id="clip0"><rect x="536" y="627" width="820" height="1192"/></clipPath><clipPath id="clip1"><rect x="540" y="798" width="813" height="852"/></clipPath><clipPath id="clip2"><rect x="540" y="798" width="813" height="852"/></clipPath><clipPath id="clip3"><rect x="540" y="798" width="813" height="852"/></clipPath></defs><g clip-path="url(#clip0)" transform="translate(-536 -627)"><path d="M569.5 760.336C569.5 690.839 625.839 634.5 695.336 634.5L1198.66 634.5C1268.16 634.5 1324.5 690.839 1324.5 760.336L1324.5 1688.66C1324.5 1758.16 1268.16 1814.5 1198.66 1814.5L695.336 1814.5C625.839 1814.5 569.5 1758.16 569.5 1688.66Z" stroke="#000000" stroke-width="4.58333" stroke-linecap="butt" stroke-linejoin="miter" stroke-miterlimit="8" stroke-opacity="1" fill="#2F5597" fill-rule="evenodd" fill-opacity="1"/><g clip-path="url(#clip1)"><g clip-path="url(#clip2)"><g clip-path="url(#clip3)"><path d="M441.086 535.31C535.157 643.718 660.562 545.388 660.562 452.773 660.562 295.881 406.5 101.625 406.5 101.625 406.5 101.625 152.488 295.881 152.488 452.773 152.488 545.328 277.656 643.566 371.71 535.572L371.71 537.689C366.959 615.195 352.774 686.07 319.035 711.375L494.058 711.375C460.31 686.07 446.134 615.195 441.383 537.689Z" fill="#000000" fill-rule="nonzero" fill-opacity="1" transform="matrix(1 0 0 1.04674 540 799)"/></g></g></g></g></svg>