<svg width="815" height="1274" xmlns="http://www.w3.org/2000/svg" xmlns:xlink="http://www.w3.org/1999/xlink" xml:space="preserve" overflow="hidden"><defs><clipPath id="clip0"><rect x="2640" y="600" width="815" height="1274"/></clipPath><clipPath id="clip1"><rect x="2640" y="768" width="813" height="853"/></clipPath><clipPath id="clip2"><rect x="2640" y="768" width="813" height="853"/></clipPath><clipPath id="clip3"><rect x="2640" y="768" width="813" height="853"/></clipPath><clipPath id="clip4"><rect x="2640" y="811" width="813" height="853"/></clipPath><clipPath id="clip5"><rect x="2640" y="811" width="813" height="853"/></clipPath><clipPath id="clip6"><rect x="2640" y="811" width="813" height="853"/></clipPath><clipPath id="clip7"><rect x="2640" y="854" width="813" height="853"/></clipPath><clipPath id="clip8"><rect x="2640" y="854" width="813" height="853"/></clipPath><clipPath id="clip9"><rect x="2640" y="854" width="813" height="853"/></clipPath></defs><g clip-path="url(#clip0)" transform="translate(-2640 -600)"><path d="M2669.5 731.502C2669.5 661.913 2725.91 605.5 2795.5 605.5L3299.5 605.5C3369.09 605.5 3425.5 661.913 3425.5 731.502L3425.5 1659.5C3425.5 1729.09 3369.09 1785.5 3299.5 1785.5L2795.5 1785.5C2725.91 1785.5 2669.5 1729.09 2669.5 1659.5Z" stroke="#000000" stroke-width="4.58333" stroke-linecap="butt" stroke-linejoin="miter" stroke-miterlimit="8" stroke-opacity="1" fill="#C00000" fill-rule="evenodd" fill-opacity="1"/><g clip-path="url(#clip1)"><g clip-path="url(#clip2)"><g clip-path="url(#clip3)"><path d="M441.086 535.31C535.157 643.718 660.562 545.388 660.562 452.773 660.562 295.881 406.5 101.625 406.5 101.625 406.5 101.625 152.488 295.881 152.488 452.773 152.488 545.328 277.656 643.566 371.71 535.572L371.71 537.689C366.959 615.195 352.774 686.07 319.035 711.375L494.058 711.375C460.31 686.07 446.134 615.195 441.383 537.689Z" fill="#000000" fill-rule="nonzero" fill-opacity="1" transform="matrix(1 0 0 1.04674 2640 769)"/></g></g></g><path d="M2669.5 774.503C2669.5 704.913 2725.91 648.5 2795.5 648.5L3299.5 648.5C3369.09 648.5 3425.5 704.913 3425.5 774.503L3425.5 1701.5C3425.5 1771.09 3369.09 1827.5 3299.5 1827.5L2795.5 1827.5C2725.91 1827.5 2669.5 1771.09 2669.5 1701.5Z" stroke="#000000" stroke-width="4.58333" stroke-linecap="butt" stroke-linejoin="miter" stroke-miterlimit="8" stroke-opacity="1" fill="#C00000" fill-rule="evenodd" fill-opacity="1"/><g clip-path="url(#clip4)"><g clip-path="url(#clip5)"><g clip-path="url(#clip6)"><path d="M441.086 535.31C535.157 643.718 660.562 545.388 660.562 452.773 660.562 295.881 406.5 101.625 406.5 101.625 406.5 101.625 152.488 295.881 152.488 452.773 152.488 545.328 277.656 643.566 371.71 535.572L371.71 537.689C366.959 615.195 352.774 686.07 319.035 711.375L494.058 711.375C460.31 686.07 446.134 615.195 441.383 537.689Z" fill="#000000" fill-rule="nonzero" fill-opacity="1" transform="matrix(1 0 0 1.04674 2640 812)"/></g></g></g><path d="M2669.5 816.502C2669.5 746.913 2725.91 690.5 2795.5 690.5L3299.5 690.5C3369.09 690.5 3425.5 746.913 3425.5 816.502L3425.5 1744.5C3425.5 1814.09 3369.09 1870.5 3299.5 1870.5L2795.5 1870.5C2725.91 1870.5 2669.5 1814.09 2669.5 1744.5Z" stroke="#000000" stroke-width="4.58333" stroke-linecap="butt" stroke-linejoin="miter" stroke-miterlimit="8" stroke-opacity="1" fill="#C00000" fill-rule="evenodd" fill-opacity="1"/><g clip-path="url(#clip7)"><g clip-path="url(#clip8)"><g clip-path="url(#clip9)"><path d="M441.086 535.31C535.157 643.718 660.562 545.388 660.562 452.773 660.562 295.881 406.5 101.625 406.5 101.625 406.5 101.625 152.488 295.881 152.488 452.773 152.488 545.328 277.656 643.566 371.71 535.572L371.71 537.689C366.959 615.195 352.774 686.07 319.035 711.375L494.058 711.375C460.31 686.07 446.134 615.195 441.383 537.689Z" fill="#000000" fill-rule="nonzero" fill-opacity="1" transform="matrix(1 0 0 1.04674 2640 855)"/></g></g></g></g></svg>